<?xml version="1.0" encoding="UTF-8" standalone="no"?>
<!-- Created with Inkscape (http://www.inkscape.org/) -->

<svg
   xmlns:dc="http://purl.org/dc/elements/1.1/"
   xmlns:cc="http://creativecommons.org/ns#"
   xmlns:rdf="http://www.w3.org/1999/02/22-rdf-syntax-ns#"
   xmlns:svg="http://www.w3.org/2000/svg"
   xmlns="http://www.w3.org/2000/svg"
   xmlns:sodipodi="http://sodipodi.sourceforge.net/DTD/sodipodi-0.dtd"
   xmlns:inkscape="http://www.inkscape.org/namespaces/inkscape"
   id="svg2"
   version="1.1"
   inkscape:version="0.48.4 r9939"
   width="750"
   height="750"
   xml:space="preserve"
   sodipodi:docname="MakerPartyLogo.eps"><metadata
     id="metadata8"><rdf:RDF><cc:Work
         rdf:about=""><dc:format>image/svg+xml</dc:format><dc:type
           rdf:resource="http://purl.org/dc/dcmitype/StillImage" /><dc:title></dc:title></cc:Work></rdf:RDF></metadata><defs
     id="defs6" /><sodipodi:namedview
     pagecolor="#ffffff"
     bordercolor="#666666"
     borderopacity="1"
     objecttolerance="10"
     gridtolerance="10"
     guidetolerance="10"
     inkscape:pageopacity="0"
     inkscape:pageshadow="2"
     inkscape:window-width="1920"
     inkscape:window-height="1053"
     id="namedview4"
     showgrid="false"
     inkscape:zoom="1.2586667"
     inkscape:cx="119.96822"
     inkscape:cy="375"
     inkscape:window-x="0"
     inkscape:window-y="0"
     inkscape:window-maximized="1"
     inkscape:current-layer="g10" /><g
     id="g10"
     inkscape:groupmode="layer"
     inkscape:label="ink_ext_XXXXXX"
     transform="matrix(1.25,0,0,-1.25,0,750)"><path
       inkscape:connector-curvature="0"
       id="path14"
       style="fill:#ffffff;fill-opacity:1;fill-rule:nonzero;stroke:#000000;stroke-opacity:1"
       d="M 499.779,425.77 308.1,536.431 c -3.53,2.037 -9.304,2.037 -12.832,0 L 103.589,425.77 c -3.528,-2.038 -6.4152,-7.038 -6.4152,-11.113 l 0,-221.335 c 0,-4.074 2.8872,-9.075 6.4152,-11.112 l 52.612,-30.374 1.27,-93.2438 73.234,50.2298 64.563,-37.274 c 3.528,-2.0371 9.302,-2.0371 12.832,0 L 499.768,182.21 c 3.529,2.037 6.416,7.038 6.416,11.112 l 0.011,221.335 c 0,4.075 -2.886,9.075 -6.416,11.113" /><path
       inkscape:connector-curvature="0"
       id="path16"
       style="fill:#ffffff;fill-opacity:1;fill-rule:nonzero;stroke:#000000;stroke-opacity:1"
       d="m 318.122,323.453 4.653,2.78 11.488,-22.228 17.737,0 -18.011,32.087 18.328,26.051 -17.179,0 -12.204,-17.816 c -2.413,-3.394 -4.027,-5.87 -4.812,-7.434 l 0,25.25 -15.793,0 0,-58.138 15.793,0 0,19.448" /><path
       inkscape:connector-curvature="0"
       id="path18"
       style="fill:#ffffff;fill-opacity:1;fill-rule:nonzero;stroke:#000000;stroke-opacity:1"
       d="m 392.803,316.807 -18.809,0 0,10.979 17.416,0 0,12.606 -17.416,0 0,9.148 18.809,0 0,12.603 -34.518,0 0,-58.138 34.518,0 0,12.802" /><path
       inkscape:connector-curvature="0"
       id="path20"
       style="fill:#ffffff;fill-opacity:1;fill-rule:nonzero;stroke:#000000;stroke-opacity:1"
       d="m 321.937,278.641 14.205,0 0,-45.297 15.698,0 0,45.297 14.159,0 0,12.848 -44.062,0 0,-12.848" /><path
       inkscape:connector-curvature="0"
       id="path22"
       style="fill:#ffffff;fill-opacity:1;fill-rule:nonzero;stroke:#000000;stroke-opacity:1"
       d="m 278.434,362.38 -5.834,0 -3.57,-14.021 c 0.2,-0.849 0.423,-1.774 0.675,-2.797 0.838,-3.365 1.547,-6.112 2.131,-8.236 l 2.511,-9.54 -10.557,0 -3.281,-12.885 17.097,0 2.859,-10.896 17.177,0 -19.208,58.375" /><path
       inkscape:connector-curvature="0"
       id="path24"
       style="fill:#ffffff;fill-opacity:1;fill-rule:nonzero;stroke:#000000;stroke-opacity:1"
       d="m 266.417,352.591 c 0.012,0.069 0.026,0.146 0.038,0.211 0.003,-0.01 0.005,-0.024 0.007,-0.035 l 2.447,9.613 -13.029,0 -18.969,-58.375 17.137,0 12.369,48.586" /><path
       inkscape:connector-curvature="0"
       id="path26"
       style="fill:#ffffff;fill-opacity:1;fill-rule:nonzero;stroke:#000000;stroke-width:0.98229313;stroke-opacity:1"
       d="m 395.29927,272.25251 -9.2032,19.22331 -17.11552,0 18.69159,-33.80953 7.62713,14.58622" /><path
       inkscape:connector-curvature="0"
       id="path28"
       style="fill:#ffffff;fill-opacity:1;fill-rule:nonzero;stroke:#000000;stroke-opacity:1"
       d="m 409.844,291.489 -19.491,-38.677 0,-19.468 15.826,0 0,22.71 19.136,35.435 -15.471,0" /><path
       inkscape:connector-curvature="0"
       id="path30"
       style="fill:#ffffff;fill-opacity:1;fill-rule:nonzero;stroke:#000000;stroke-opacity:1"
       d="m 233.232,280.228 c 0.156,0.763 0.281,1.402 0.372,1.913 0.014,-0.08 0.033,-0.175 0.049,-0.26 l 2.507,9.848 -13.131,0 -18.968,-58.385 17.235,0 11.936,46.884" /><path
       inkscape:connector-curvature="0"
       id="path32"
       style="fill:#ffffff;fill-opacity:1;fill-rule:nonzero;stroke:#000000;stroke-opacity:1"
       d="m 245.585,291.729 -5.732,0 -3.626,-14.243 c 0.188,-0.788 0.397,-1.641 0.629,-2.576 0.833,-3.363 1.542,-6.116 2.128,-8.235 l 2.505,-9.545 -10.445,0 -3.28,-12.882 16.987,0 2.864,-10.904 17.18,0 -19.21,58.385" /><path
       inkscape:connector-curvature="0"
       id="path34"
       style="fill:#ffffff;fill-opacity:1;fill-rule:nonzero;stroke:#000000;stroke-opacity:1"
       d="m 417.385,362.143 -14.399,0 0,-58.138 14.175,0 0.224,58.138" /><path
       inkscape:connector-curvature="0"
       id="path36"
       style="fill:#ffffff;fill-opacity:1;fill-rule:nonzero;stroke:#000000;stroke-opacity:1"
       d="m 437.477,329.335 c 6.574,3.686 9.855,8.895 9.855,15.63 0,11.458 -7.895,17.178 -23.699,17.178 l -2.625,0 -0.046,-11.891 2.431,0 c 5.385,0 8.078,-1.993 8.078,-6.007 0,-4.846 -2.753,-7.276 -8.235,-7.276 l -2.325,0 -0.047,-11.809 3.409,0 12.326,-21.155 17.817,0 -16.939,25.33" /><path
       inkscape:connector-curvature="0"
       id="path38"
       style="fill:#ffffff;fill-opacity:1;fill-rule:nonzero;stroke:#000000;stroke-opacity:1"
       d="m 211.307,362.143 -11.802,-40.992 4.378,-17.146 2.453,0 11.735,41.794 0.354,0 c -0.314,-6.305 -0.496,-10.272 -0.538,-11.891 -0.032,-1.614 -0.057,-3.086 -0.057,-4.418 l 0,-25.485 14.438,0 0,58.138 -20.961,0" /><path
       inkscape:connector-curvature="0"
       id="path40"
       style="fill:#ffffff;fill-opacity:1;fill-rule:nonzero;stroke:#000000;stroke-opacity:1"
       d="m 189.784,304.005 10.408,0 -14.846,58.138 -20.895,0 0,-58.138 13.919,0 0,25.253 c 0,3.948 -0.274,9.491 -0.83,16.626 l 0.359,0 11.885,-41.879" /><path
       inkscape:connector-curvature="0"
       id="path42"
       style="fill:#ffffff;fill-opacity:1;fill-rule:nonzero;stroke:#000000;stroke-opacity:1"
       d="m 286.242,291.489 -15.167,0 0,-58.145 14.947,0 0.22,58.145" /><path
       inkscape:connector-curvature="0"
       id="path44"
       style="fill:#ffffff;fill-opacity:1;fill-rule:nonzero;stroke:#000000;stroke-opacity:1"
       d="m 305.556,258.681 c 6.579,3.686 9.867,8.895 9.867,15.629 0,11.451 -7.902,17.179 -23.695,17.179 l -1.863,0 -0.044,-11.893 1.666,0 c 5.381,0 8.071,-1.999 8.071,-5.996 0,-4.855 -2.741,-7.286 -8.23,-7.286 l -1.556,0 -0.046,-11.804 2.637,0 12.324,-21.166 17.818,0 -16.949,25.337" /><path
       inkscape:connector-curvature="0"
       id="path46"
       style="fill:#ffffff;fill-opacity:1;fill-rule:nonzero;stroke:#000000;stroke-opacity:1"
       d="m 179.274,291.489 -14.823,0 0,-58.145 14.597,0 0.226,58.145" /><path
       inkscape:connector-curvature="0"
       id="path48"
       style="fill:#ffffff;fill-opacity:1;fill-rule:nonzero;stroke:#000000;stroke-opacity:1"
       d="m 202.72,286.678 c -3.686,3.206 -9.202,4.811 -16.545,4.811 l -3.271,0 -0.049,-12.69 2.963,0 c 4.342,0 6.527,-1.955 6.527,-5.882 0,-2.331 -0.701,-4.161 -2.092,-5.482 -1.392,-1.329 -3.267,-1.995 -5.627,-1.995 l -1.824,0 -0.048,-12.799 3.421,0 c 7.056,0 12.493,1.764 16.324,5.308 3.831,3.537 5.753,8.558 5.753,15.05 0,5.909 -1.846,10.475 -5.532,13.679" /></g></svg>