<?xml version="1.0" encoding="UTF-8" standalone="no"?>
<!-- Created with Inkscape (http://www.inkscape.org/) -->

<svg
   xmlns:dc="http://purl.org/dc/elements/1.1/"
   xmlns:cc="http://creativecommons.org/ns#"
   xmlns:rdf="http://www.w3.org/1999/02/22-rdf-syntax-ns#"
   xmlns:svg="http://www.w3.org/2000/svg"
   xmlns="http://www.w3.org/2000/svg"
   xmlns:sodipodi="http://sodipodi.sourceforge.net/DTD/sodipodi-0.dtd"
   xmlns:inkscape="http://www.inkscape.org/namespaces/inkscape"
   width="1052.3622"
   height="744.09448"
   id="svg2"
   version="1.1"
   inkscape:version="0.48.4 r9939"
   sodipodi:docname="mohawk_movieSign_fold.svg">
  <defs
     id="defs4" />
  <sodipodi:namedview
     id="base"
     pagecolor="#ffffff"
     bordercolor="#666666"
     borderopacity="1.0"
     inkscape:pageopacity="0.0"
     inkscape:pageshadow="2"
     inkscape:zoom="0.98994949"
     inkscape:cx="523.51414"
     inkscape:cy="385.59076"
     inkscape:document-units="px"
     inkscape:current-layer="layer1"
     showgrid="false"
     showguides="true"
     inkscape:guide-bbox="true"
     inkscape:window-width="1680"
     inkscape:window-height="1025"
     inkscape:window-x="0"
     inkscape:window-y="0"
     inkscape:window-maximized="1" />
  <metadata
     id="metadata7">
    <rdf:RDF>
      <cc:Work
         rdf:about="">
        <dc:format>image/svg+xml</dc:format>
        <dc:type
           rdf:resource="http://purl.org/dc/dcmitype/StillImage" />
        <dc:title />
      </cc:Work>
    </rdf:RDF>
  </metadata>
  <g
     inkscape:label="Layer 1"
     inkscape:groupmode="layer"
     id="layer1"
     transform="translate(0,-308.2677)">
    <path
       style="fill:none;stroke:#888888;stroke-width:1px;stroke-linecap:butt;stroke-linejoin:miter;stroke-opacity:1"
       d="m -33.335034,680.31494 1124.299734,0"
       id="path3771"
       inkscape:connector-curvature="0" />
    <path
       inkscape:connector-curvature="0"
       id="path3773"
       d="m -33.335034,420.31494 1124.299734,0"
       style="fill:none;stroke:#888888;stroke-width:1;stroke-linecap:butt;stroke-linejoin:miter;stroke-opacity:1;stroke-miterlimit:4;stroke-dasharray:6,6;stroke-dashoffset:0" />
    <path
       style="fill:none;stroke:#888888;stroke-width:1;stroke-linecap:butt;stroke-linejoin:miter;stroke-opacity:1;stroke-miterlimit:4;stroke-dasharray:6,6;stroke-dashoffset:0"
       d="m -33.335034,940.31494 1124.299734,0"
       id="path3775"
       inkscape:connector-curvature="0" />
    <text
       xml:space="preserve"
       style="font-size:88.32252502px;font-style:normal;font-variant:normal;font-weight:normal;font-stretch:normal;line-height:125%;letter-spacing:0px;word-spacing:0px;fill:#000000;fill-opacity:1;stroke:none;font-family:Lohit Malayalam;-inkscape-font-specification:Lohit Malayalam"
       x="65.467117"
       y="802.04565"
       id="text3785"
       sodipodi:linespacing="125%"><tspan
         sodipodi:role="line"
         id="tspan3787"
         x="65.467117"
         y="802.04565"
         style="font-style:normal;font-variant:normal;font-weight:normal;font-stretch:normal;font-family:ChunkFive;-inkscape-font-specification:ChunkFive">Organisation</tspan></text>
    <path
       style="fill:#02afb6;fill-opacity:1"
       d="m 834.4375,681.6427 c -21.88262,12.67194 -29.77409,17.34466 -30.3125,17.875 -0.52662,0.51871 -1.28039,1.54907 -1.65625,2.3125 l -0.6875,1.40625 0,70.03125 0,70.0625 0.6875,1.375 c 1.26055,2.56053 1.15705,2.49157 18.96875,12.75 15.54445,8.95266 16.3462,9.42777 16.4375,10.03125 0.0528,0.34902 0.25452,13.11517 0.4375,28.34375 0.18302,15.22846 0.35725,27.81606 0.40625,27.96875 0.049,0.15278 0.22349,0.21455 0.375,0.15625 0.15153,-0.0581 10.24277,-6.94848 22.4375,-15.3125 20.54209,-14.08932 22.22046,-15.19793 22.65625,-14.96875 0.25868,0.13597 9.16935,5.29496 19.8125,11.4375 10.64312,6.14257 19.78802,11.35299 20.3125,11.59375 1.4036,0.644 4.82305,0.62265 6.25,-0.0312 0.55077,-0.25246 27.59614,-15.80912 60.09375,-34.5625 45.62775,-26.33039 59.31795,-34.2988 60.06255,-35.03125 1.1068,-1.08893 2.072,-2.8641 2.4062,-4.4375 0.3297,-1.5525 0.3297,-137.19752 0,-138.75 -0.3346,-1.57538 -1.2983,-3.34956 -2.4062,-4.4375 -0.5474,-0.53733 -8.3623,-5.12209 -30.2813,-17.8125 l -186,0 z m 68.59375,55.71875 c 1.78436,-0.0237 3.59635,0.0495 3.8125,0.1875 0.16783,0.10712 -1.02801,5.07614 -4.125,17.25 -2.39622,9.41917 -4.4234,17.40849 -4.5,17.71875 l -0.15625,0.5625 -5.09375,0 c -2.81794,0 -5.125,-0.0802 -5.125,-0.15625 0,-0.33536 11.34674,-35.0521 11.53125,-35.28125 0.1146,-0.14234 1.87189,-0.2575 3.65625,-0.28125 z m 6.4375,0.0312 c 0.8937,-0.0739 2.35631,0.0392 2.53125,0.25 0.17834,0.21486 11.71875,34.99043 11.71875,35.3125 0,0.1021 -10.2225,0.16433 -10.25,0.0625 -0.008,-0.0282 -0.40316,-1.47023 -0.875,-3.21875 l -0.875,-3.1875 -5.1875,-0.0625 c -4.4821,-0.0475 -5.15625,-0.10407 -5.15625,-0.375 0,-0.51749 1.69648,-6.94227 1.90625,-7.21875 0.13979,-0.18416 1.03255,-0.25 3.15625,-0.25 2.32639,0 2.9767,-0.058 3.0625,-0.28125 0.0599,-0.15601 -0.54843,-2.7505 -1.34375,-5.78125 -0.79532,-3.03072 -1.4949,-5.81061 -1.5625,-6.15625 -0.142,-0.72569 1.83344,-8.69081 2.21875,-8.9375 0.10174,-0.0651 0.35835,-0.1316 0.65625,-0.15625 z m 90.53125,0.125 2.75,0.125 c 7.2326,0.32692 11.3052,2.5392 12.625,6.8125 1.5202,4.92177 -0.1414,9.76601 -4.3125,12.46875 -0.5392,0.34935 -1,0.72991 -1,0.84375 0,0.11387 2.2302,3.49884 4.9375,7.53125 2.7072,4.03233 4.9062,7.44117 4.9062,7.5625 0,0.15141 -1.6263,0.21875 -5.2187,0.21875 -4.759,0 -5.2377,-0.0483 -5.4375,-0.375 -0.1209,-0.19738 -1.8111,-3.07858 -3.75,-6.40625 l -3.5313,-6.0625 -1.0312,-0.0937 -1.03125,-0.0937 0,-3.375 0,-3.375 1.84375,-0.25 c 1.0152,-0.12642 2.1469,-0.37869 2.5,-0.5625 2.4086,-1.25342 2.9277,-5.23077 0.875,-6.75 -0.9659,-0.71491 -1.2789,-0.79126 -3.25,-0.9375 l -1.75,-0.125 -0.062,-3.59375 -0.062,-3.5625 z m -144.375,0.0625 0.21875,0.46875 c 0.26562,0.63303 8.8125,34.27614 8.8125,34.6875 0,0.28555 -0.39171,0.34375 -2.96875,0.34375 -1.62898,0 -3.0058,-0.096 -3.0625,-0.1875 -0.0566,-0.0917 -1.67981,-5.69201 -3.59375,-12.4375 -1.91395,-6.74539 -3.58605,-12.37145 -3.71875,-12.5 -0.18475,-0.17915 -0.19385,0.73218 -0.0625,3.875 0.0944,2.25607 0.1875,7.94367 0.1875,12.625 l 0,8.5 -4.15625,0.0625 -4.15625,0.0625 0.0312,-17.6875 0.0625,-17.71875 6.21875,-0.0312 6.1875,-0.0625 z m 15.375,0 6.25,0 6.25,0 0.125,0.46875 c 0.0611,0.25381 0.0935,8.21197 0.0625,17.6875 l -0.0625,17.21875 -4.34375,0.0625 -4.375,0.0625 0,-8.875 c 0.003,-4.88097 0.0831,-10.49472 0.1875,-12.46875 0.16987,-3.21164 0.11256,-4.33665 -0.25,-3.75 -0.0664,0.10739 -1.55848,5.31486 -3.3125,11.5625 -1.75401,6.24767 -3.33044,11.84533 -3.5,12.4375 -0.29491,1.02981 -0.35762,1.09375 -1.03125,1.09375 -0.64133,0 -0.69228,-0.0807 -0.875,-0.78125 -1.15014,-4.40869 -2.34675,-9.26391 -2.34375,-9.59375 0.002,-0.41636 6.67378,-23.80886 7.03125,-24.65625 L 871,737.5802 z m 79.4375,0 c 0.67048,-0.008 1.52747,0 2.625,0 2.68317,0 4.9415,0.0929 5,0.1875 0.0585,0.0946 -2.32775,3.63061 -5.3125,7.875 -2.98473,4.24438 -5.4375,7.80295 -5.4375,7.90625 0,0.10341 2.41084,4.46534 5.34375,9.6875 2.93291,5.22216 5.3125,9.56135 5.3125,9.65625 0,0.0949 -2.37653,0.1549 -5.28125,0.125 l -5.28125,-0.0625 -3.375,-6.5625 c -2.60508,-5.05232 -3.49677,-6.55615 -3.8125,-6.59375 -0.22564,-0.0272 -0.91085,0.29677 -1.53125,0.71875 l -1.125,0.75 -0.0625,5.90625 -0.0312,5.90625 -4.6875,0 c -2.57395,0 -4.7373,-0.0811 -4.8125,-0.15625 -0.19713,-0.19709 -0.16636,-34.78236 0.0312,-35.09375 0.12732,-0.2001 1.20676,-0.23 4.75,-0.1875 l 4.625,0.0312 0.0312,7.28125 c 0.0297,4.00036 0.14831,7.36706 0.25,7.46875 0.10993,0.10988 0.41427,-0.18685 0.75,-0.71875 0.84417,-1.33734 9.10665,-13.33494 9.46875,-13.75 0.21134,-0.24235 0.55105,-0.34978 2.5625,-0.375 z m 41.5625,0 c 0.56228,-0.008 1.28632,0 2.1875,0 3.14013,0 4.177,0.0565 4.25,0.25 0.051,0.141 0.058,8.13343 0,17.75 l -0.125,17.5 -4.125,0 c -2.27749,0 -4.20555,-0.0811 -4.28125,-0.15625 -0.17021,-0.17083 -0.20184,-34.5554 -0.0312,-35 0.0809,-0.21085 0.43816,-0.31839 2.125,-0.34375 z m -27.3125,0.0625 c 1.59349,-0.0312 4.21153,-0.0209 8.28125,0 l 10.34375,0.0312 0,3.71875 0,3.6875 -5.625,0.0312 c -4.19056,0.0407 -5.69292,0.12418 -5.8125,0.3125 -0.18837,0.29686 -0.21345,4.68141 -0.0312,5.15625 0.10895,0.28383 0.744,0.34375 5.1875,0.34375 4.07333,0 5.15506,0.0539 5.34375,0.28125 0.16177,0.1948 0.19495,1.37267 0.15625,3.75 l -0.0625,3.4375 -5.09375,0.0625 c -3.35036,0.036 -5.19604,0.13268 -5.375,0.28125 -0.20499,0.1699 -0.28125,0.96842 -0.28125,3.21875 0.002,1.65003 0.0679,3.11088 0.15625,3.25 0.11958,0.18832 1.62194,0.2719 5.8125,0.3125 l 5.625,0.0625 0.0312,3.75 0.0625,3.75 -10.4375,0 c -5.7367,0 -10.4873,-0.081 -10.5625,-0.15625 -0.19629,-0.19625 -0.16553,-34.78381 0.0312,-35.09375 0.0645,-0.10105 0.65651,-0.15626 2.25,-0.1875 z m -80.59375,43.21875 c 2.7454,-0.002 3.57595,0.072 3.65625,0.28125 0.0901,0.23456 -8.62322,34.84122 -8.875,35.25 -0.0875,0.142 -10.3125,0.23516 -10.3125,0.0937 0,-0.48087 11.51762,-35.31002 11.71875,-35.4375 0.15416,-0.0978 1.86312,-0.1875 3.8125,-0.1875 z m 6.9375,0 c 0.71017,-0.0224 1.45402,0.0263 1.65625,0.15625 0.20291,0.13037 11.75,34.86428 11.75,35.34375 0,0.0981 -2.30924,0.1875 -5.125,0.1875 l -5.09375,0 -0.25,-0.875 c -0.9597,-3.71754 -1.2681,-4.81659 -1.4375,-5.21875 -0.19407,-0.46151 -0.17879,-0.46875 -5.1875,-0.46875 -2.75948,0 -5.0746,-0.0716 -5.125,-0.15625 -0.0503,-0.0846 0.35199,-1.81322 0.875,-3.84375 l 0.9375,-3.6875 3.125,-0.0625 c 2.96162,-0.0537 3.125,-0.0842 3.125,-0.46875 0,-0.22342 -0.69148,-3.03442 -1.53125,-6.25 l -1.5,-5.84375 1.03125,-4.15625 c 0.57581,-2.2829 1.14149,-4.26523 1.25,-4.40625 0.1075,-0.13967 0.78983,-0.22761 1.5,-0.25 z m -37.4375,0.15625 2.71875,0.0937 c 4.47623,0.19939 7.15673,1.10255 9.375,3.15625 1.37961,1.27735 2.48474,3.27652 2.875,5.15625 0.385,1.8547 0.1406,5.98497 -0.4375,7.6875 -1.2968,3.81913 -4.56773,6.51617 -8.90625,7.3125 -0.56738,0.10411 -2.08059,0.26385 -3.34375,0.34375 -1.89554,0.11991 -2.31365,0.0851 -2.40625,-0.15625 -0.061,-0.16085 -0.0935,-1.90492 -0.0625,-3.875 l 0.0625,-3.5625 1.375,-0.125 c 3.13472,-0.26973 5.05122,-2.8506 4.28125,-5.75 -0.45876,-1.72749 -1.55801,-2.44311 -4,-2.625 l -1.65625,-0.125 -0.0625,-3.28125 c -0.0322,-1.80486 -0.004,-3.51076 0.0625,-3.78125 l 0.125,-0.46875 z m -1.65625,0.0312 -0.0625,17.6875 -0.0312,17.71875 -4.375,0.0312 -4.34375,0.0625 0.0312,-17.6875 0.0625,-17.6875 4.375,-0.0625 4.34375,-0.0625 z m 56.8125,0 4.46875,0.0625 4.4375,0.0625 0,17.625 0,17.65625 -4.4375,0.0312 -4.46875,0.0625 0,-17.75 0,-17.75 z m 12.375,0.0312 c 1.66393,0.0102 4.14122,0.30121 6.03125,0.8125 3.69697,1.00003 5.83787,2.77943 7.03125,5.84375 0.40727,1.04578 0.46874,1.59595 0.46875,3.6875 6e-5,2.12366 -0.0683,2.64916 -0.5,3.75 -0.65049,1.65861 -1.95312,3.40966 -3.28125,4.4375 -0.58301,0.45121 -1.27685,1.01399 -1.5625,1.25 l -0.53125,0.4375 5.0625,7.53125 c 2.78258,4.13276 5.0625,7.5658 5.0625,7.625 0,0.0591 -2.39257,0.0937 -5.3125,0.0937 l -5.3125,0 -3.53125,-6.09375 c -1.94882,-3.35592 -3.68088,-6.27765 -3.84375,-6.46875 -0.16285,-0.19118 -0.5827,-0.37175 -0.9375,-0.40625 l -0.65625,-0.0625 -0.0625,-3.40625 -0.0625,-3.40625 1.4375,-0.15625 c 1.73153,-0.17384 2.94528,-0.76165 3.78125,-1.8125 0.50886,-0.63954 0.64955,-1.00666 0.71875,-2.09375 0.10649,-1.67205 -0.0451,-2.15721 -0.8125,-3.03125 -0.7211,-0.82128 -2.06854,-1.375 -3.46875,-1.375 -1.68943,0 -1.625,0.1576 -1.625,-3.375 0,-1.72717 0.0566,-3.29032 0.125,-3.46875 0.0874,-0.22785 0.78289,-0.31861 1.78125,-0.3125 z m 25.25,0 c 1.81134,-0.008 4.13716,0 7.125,0 l 13.3125,0 -0.0625,3.84375 -0.0625,3.84375 -4.1875,0.0937 -4.21875,0.0937 -0.0625,13.8125 -0.0312,13.78125 -4.71875,0 -4.71875,0 -0.0625,-13.78125 -0.0312,-13.8125 -4.09375,-0.0625 c -2.59133,-0.0354 -4.20255,-0.13805 -4.375,-0.28125 -0.20563,-0.17058 -0.25,-1.03637 -0.25,-3.5625 0,-1.83818 0.0566,-3.47782 0.125,-3.65625 0.0838,-0.21853 0.87847,-0.28956 6.3125,-0.3125 z m 47.9375,0 c 0.59971,-0.009 1.36879,0 2.34375,0 2.40124,0 4.41675,0.0404 4.46875,0.125 0.052,0.0846 -2.51196,4.97791 -5.6875,10.84375 l -5.78125,10.65625 -0.0625,6.90625 -0.0625,6.9375 -4.6875,0 -4.71875,0 0,-5.84375 0,-5.84375 5.75,-11.53125 c 3.17022,-6.34479 5.91875,-11.70878 6.09375,-11.90625 0.21309,-0.24035 0.54462,-0.31793 2.34375,-0.34375 z m -24.5,0.0312 c 0.8146,-0.0278 2.07569,-0.0196 3.875,0 l 5.0625,0.0625 2.78125,6 2.78125,6.03125 -2.1875,4.375 c -1.20587,2.41488 -2.30298,4.40625 -2.40625,4.40625 -0.20221,0 -11.09375,-20.31008 -11.09375,-20.6875 0,-0.0809 0.3729,-0.1597 1.1875,-0.1875 z"
       id="path10579"
       inkscape:connector-curvature="0" />
    <flowRoot
       xml:space="preserve"
       id="flowRoot2985"
       style="font-size:40px;font-style:normal;font-variant:normal;font-weight:normal;font-stretch:normal;line-height:125%;letter-spacing:0px;word-spacing:0px;fill:#000000;fill-opacity:1;stroke:none;font-family:Lohit Malayalam;-inkscape-font-specification:Lohit Malayalam"
       transform="translate(200.01531,703.27795)"><flowRegion
         id="flowRegion2987"><rect
           id="rect2989"
           width="772.76672"
           height="64.649734"
           x="-134.3503"
           y="128.91158" /></flowRegion><flowPara
         style="font-size:24px;font-style:normal;font-variant:normal;font-weight:normal;font-stretch:normal;font-family:Cantarell;-inkscape-font-specification:Cantarell"
         id="flowPara3781">Activity</flowPara><flowPara
         style="font-size:24px;font-style:normal;font-variant:normal;font-weight:normal;font-stretch:normal;font-family:Cantarell;-inkscape-font-specification:Cantarell"
         id="flowPara3797" /></flowRoot>    <path
       inkscape:connector-curvature="0"
       id="path10599"
       d="m 1086.9647,678.31494 -1124.299734,0"
       style="fill:none;stroke:#888888;stroke-width:1px;stroke-linecap:butt;stroke-linejoin:miter;stroke-opacity:1" />
    <text
       sodipodi:linespacing="125%"
       id="text10603"
       y="-564.58423"
       x="-988.16254"
       style="font-size:88.32252502px;font-style:normal;font-variant:normal;font-weight:normal;font-stretch:normal;line-height:125%;letter-spacing:0px;word-spacing:0px;fill:#000000;fill-opacity:1;stroke:none;font-family:Lohit Malayalam;-inkscape-font-specification:Lohit Malayalam"
       xml:space="preserve"
       transform="scale(-1,-1)"><tspan
         style="font-style:normal;font-variant:normal;font-weight:normal;font-stretch:normal;font-family:ChunkFive;-inkscape-font-specification:ChunkFive"
         y="-564.58423"
         x="-988.16254"
         id="tspan10605"
         sodipodi:role="line">Organisation</tspan></text>
    <path
       inkscape:connector-curvature="0"
       id="path10607"
       d="m 219.19217,676.98718 c 21.88262,-12.67194 29.77409,-17.34466 30.3125,-17.875 0.52662,-0.51871 1.28039,-1.54907 1.65625,-2.3125 l 0.6875,-1.40625 0,-70.03125 0,-70.0625 -0.6875,-1.375 c -1.26055,-2.56053 -1.15705,-2.49157 -18.96875,-12.75 -15.54445,-8.95266 -16.3462,-9.42777 -16.4375,-10.03125 -0.0528,-0.34902 -0.25452,-13.11517 -0.4375,-28.34375 -0.18302,-15.22846 -0.35725,-27.81606 -0.40625,-27.96875 -0.049,-0.15278 -0.22349,-0.21455 -0.375,-0.15625 -0.15153,0.0581 -10.24277,6.94848 -22.4375,15.3125 -20.54209,14.08932 -22.22046,15.19793 -22.65625,14.96875 -0.25868,-0.13597 -9.16935,-5.29496 -19.8125,-11.4375 -10.64312,-6.14257 -19.78802,-11.35299 -20.3125,-11.59375 -1.4036,-0.644 -4.82305,-0.62265 -6.25,0.0312 -0.55077,0.25246 -27.596144,15.80912 -60.093754,34.5625 -45.62775,26.33039 -59.31795,34.2988 -60.06255,35.03125 -1.1068,1.08893 -2.072,2.8641 -2.4062,4.4375 -0.3297,1.5525 -0.3297,137.19752 0,138.75 0.3346,1.57538 1.2983,3.34956 2.4062,4.4375 0.5474,0.53733 8.3623,5.12209 30.2813,17.8125 l 186.000004,0 z m -68.59375,-55.71875 c -1.78436,0.0237 -3.59635,-0.0495 -3.8125,-0.1875 -0.16783,-0.10712 1.02801,-5.07614 4.125,-17.25 2.39622,-9.41917 4.4234,-17.40849 4.5,-17.71875 l 0.15625,-0.5625 5.09375,0 c 2.81794,0 5.125,0.0802 5.125,0.15625 0,0.33536 -11.34674,35.0521 -11.53125,35.28125 -0.1146,0.14234 -1.87189,0.2575 -3.65625,0.28125 z m -6.4375,-0.0312 c -0.8937,0.0739 -2.35631,-0.0392 -2.53125,-0.25 -0.17834,-0.21486 -11.71875,-34.99043 -11.71875,-35.3125 0,-0.1021 10.2225,-0.16433 10.25,-0.0625 0.008,0.0282 0.40316,1.47023 0.875,3.21875 l 0.875,3.1875 5.1875,0.0625 c 4.4821,0.0475 5.15625,0.10407 5.15625,0.375 0,0.51749 -1.69648,6.94227 -1.90625,7.21875 -0.13979,0.18416 -1.03255,0.25 -3.15625,0.25 -2.32639,0 -2.9767,0.058 -3.0625,0.28125 -0.0599,0.15601 0.54843,2.7505 1.34375,5.78125 0.79532,3.03072 1.4949,5.81061 1.5625,6.15625 0.142,0.72569 -1.83344,8.69081 -2.21875,8.9375 -0.10174,0.0651 -0.35835,0.1316 -0.65625,0.15625 z m -90.531254,-0.125 -2.75,-0.125 c -7.2326,-0.32692 -11.3052,-2.5392 -12.625,-6.8125 -1.5202,-4.92177 0.1414,-9.76601 4.3125,-12.46875 0.5392,-0.34935 1,-0.72991 1,-0.84375 0,-0.11387 -2.2302,-3.49884 -4.9375,-7.53125 -2.7072,-4.03233 -4.9062,-7.44117 -4.9062,-7.5625 0,-0.15141 1.6263,-0.21875 5.2187,-0.21875 4.759,0 5.2377,0.0483 5.4375,0.375 0.1209,0.19738 1.8111,3.07858 3.75,6.40625 l 3.5313,6.0625 1.0312,0.0937 1.03125,0.0937 0,3.375 0,3.375 -1.84375,0.25 c -1.0152,0.12642 -2.1469,0.37869 -2.5,0.5625 -2.4086,1.25342 -2.9277,5.23077 -0.875,6.75 0.9659,0.71491 1.2789,0.79126 3.25,0.9375 l 1.75,0.125 0.062,3.59375 0.062,3.5625 z m 144.375004,-0.0625 -0.21875,-0.46875 c -0.26562,-0.63303 -8.8125,-34.27614 -8.8125,-34.6875 0,-0.28555 0.39171,-0.34375 2.96875,-0.34375 1.62898,0 3.0058,0.096 3.0625,0.1875 0.0566,0.0917 1.67981,5.69201 3.59375,12.4375 1.91395,6.74539 3.58605,12.37145 3.71875,12.5 0.18475,0.17915 0.19385,-0.73218 0.0625,-3.875 -0.0944,-2.25607 -0.1875,-7.94367 -0.1875,-12.625 l 0,-8.5 4.15625,-0.0625 4.15625,-0.0625 -0.0312,17.6875 -0.0625,17.71875 -6.21875,0.0312 -6.1875,0.0625 z m -15.375,0 -6.25,0 -6.25,0 -0.125,-0.46875 c -0.0611,-0.25381 -0.0935,-8.21197 -0.0625,-17.6875 l 0.0625,-17.21875 4.34375,-0.0625 4.375,-0.0625 0,8.875 c -0.003,4.88097 -0.0831,10.49472 -0.1875,12.46875 -0.16987,3.21164 -0.11256,4.33665 0.25,3.75 0.0664,-0.10739 1.55848,-5.31486 3.3125,-11.5625 1.75401,-6.24767 3.33044,-11.84533 3.5,-12.4375 0.29491,-1.02981 0.35762,-1.09375 1.03125,-1.09375 0.64133,0 0.69228,0.0807 0.875,0.78125 1.15014,4.40869 2.34675,9.26391 2.34375,9.59375 -0.002,0.41636 -6.67378,23.80886 -7.03125,24.65625 l -0.1875,0.4687 z m -79.4375,0 c -0.67048,0.008 -1.52747,0 -2.625,0 -2.68317,0 -4.941504,-0.0929 -5.000004,-0.1875 -0.0585,-0.0946 2.327754,-3.63061 5.312504,-7.875 2.98473,-4.24438 5.4375,-7.80295 5.4375,-7.90625 0,-0.10341 -2.41084,-4.46534 -5.34375,-9.6875 -2.93291,-5.22216 -5.312504,-9.56135 -5.312504,-9.65625 0,-0.0949 2.376534,-0.1549 5.281254,-0.125 l 5.28125,0.0625 3.375,6.5625 c 2.60508,5.05232 3.49677,6.55615 3.8125,6.59375 0.22564,0.0272 0.91085,-0.29677 1.53125,-0.71875 l 1.125,-0.75 0.0625,-5.90625 0.0312,-5.90625 4.6875,0 c 2.57395,0 4.7373,0.0811 4.8125,0.15625 0.19713,0.19709 0.16636,34.78236 -0.0312,35.09375 -0.12732,0.2001 -1.20676,0.23 -4.75,0.1875 l -4.625,-0.0312 -0.0312,-7.28125 c -0.0297,-4.00036 -0.14831,-7.36706 -0.25,-7.46875 -0.10993,-0.10988 -0.41427,0.18685 -0.75,0.71875 -0.84417,1.33734 -9.10665,13.33494 -9.46875,13.75 -0.21134,0.24235 -0.55105,0.34978 -2.5625,0.375 z m -41.562504,0 c -0.56228,0.008 -1.28632,0 -2.1875,0 -3.14013,0 -4.177,-0.0565 -4.25,-0.25 -0.051,-0.141 -0.058,-8.13343 0,-17.75 l 0.125,-17.5 4.125,0 c 2.27749,0 4.20555,0.0811 4.28125,0.15625 0.17021,0.17083 0.20184,34.5554 0.0312,35 -0.0809,0.21085 -0.43816,0.31839 -2.125,0.34375 z m 27.3125,-0.0625 c -1.59349,0.0312 -4.21153,0.0209 -8.28125,0 l -10.34375,-0.0312 0,-3.71875 0,-3.6875 5.625,-0.0312 c 4.19056,-0.0407 5.69292,-0.12418 5.8125,-0.3125 0.18837,-0.29686 0.21345,-4.68141 0.0312,-5.15625 -0.10895,-0.28383 -0.744,-0.34375 -5.1875,-0.34375 -4.07333,0 -5.15506,-0.0539 -5.34375,-0.28125 -0.16177,-0.1948 -0.19495,-1.37267 -0.15625,-3.75 l 0.0625,-3.4375 5.09375,-0.0625 c 3.35036,-0.036 5.19604,-0.13268 5.375,-0.28125 0.20499,-0.1699 0.28125,-0.96842 0.28125,-3.21875 -0.002,-1.65003 -0.0679,-3.11088 -0.15625,-3.25 -0.11958,-0.18832 -1.62194,-0.2719 -5.8125,-0.3125 l -5.625,-0.0625 -0.0312,-3.75 -0.0625,-3.75 10.4375,0 c 5.7367,0 10.4873,0.081 10.5625,0.15625 0.19629,0.19625 0.16553,34.78381 -0.0312,35.09375 -0.0645,0.10105 -0.65651,0.15626 -2.25,0.1875 z m 80.593754,-43.21875 c -2.7454,0.002 -3.57595,-0.072 -3.65625,-0.28125 -0.0901,-0.23456 8.62322,-34.84122 8.875,-35.25 0.0875,-0.142 10.3125,-0.23516 10.3125,-0.0937 0,0.48087 -11.51762,35.31002 -11.71875,35.4375 -0.15416,0.0978 -1.86312,0.1875 -3.8125,0.1875 z m -6.9375,0 c -0.71017,0.0224 -1.45402,-0.0263 -1.65625,-0.15625 -0.20291,-0.13037 -11.75,-34.86428 -11.75,-35.34375 0,-0.0981 2.30924,-0.1875 5.125,-0.1875 l 5.09375,0 0.25,0.875 c 0.9597,3.71754 1.2681,4.81659 1.4375,5.21875 0.19407,0.46151 0.17879,0.46875 5.1875,0.46875 2.75948,0 5.0746,0.0716 5.125,0.15625 0.0503,0.0846 -0.35199,1.81322 -0.875,3.84375 l -0.9375,3.6875 -3.125,0.0625 c -2.96162,0.0537 -3.125,0.0842 -3.125,0.46875 0,0.22342 0.69148,3.03442 1.53125,6.25 l 1.5,5.84375 -1.03125,4.15625 c -0.57581,2.2829 -1.14149,4.26523 -1.25,4.40625 -0.1075,0.13967 -0.78983,0.22761 -1.5,0.25 z m 37.4375,-0.15625 -2.71875,-0.0937 c -4.47623,-0.19939 -7.15673,-1.10255 -9.375,-3.15625 -1.37961,-1.27735 -2.48474,-3.27652 -2.875,-5.15625 -0.385,-1.8547 -0.1406,-5.98497 0.4375,-7.6875 1.2968,-3.81913 4.56773,-6.51617 8.90625,-7.3125 0.56738,-0.10411 2.08059,-0.26385 3.34375,-0.34375 1.89554,-0.11991 2.31365,-0.0851 2.40625,0.15625 0.061,0.16085 0.0935,1.90492 0.0625,3.875 l -0.0625,3.5625 -1.375,0.125 c -3.13472,0.26973 -5.05122,2.8506 -4.28125,5.75 0.45876,1.72749 1.55801,2.44311 4,2.625 l 1.65625,0.125 0.0625,3.28125 c 0.0322,1.80486 0.004,3.51076 -0.0625,3.78125 l -0.125,0.46875 z m 1.65625,-0.0312 0.0625,-17.6875 0.0312,-17.71875 4.375,-0.0312 4.34375,-0.0625 -0.0312,17.6875 -0.0625,17.6875 -4.375,0.0625 -4.34375,0.0625 z m -56.8125,0 -4.46875,-0.0625 -4.4375,-0.0625 0,-17.625 0,-17.65625 4.4375,-0.0312 4.46875,-0.0625 0,17.75 0,17.75 z m -12.375,-0.0312 c -1.66393,-0.0102 -4.14122,-0.30121 -6.03125,-0.8125 -3.69697,-1.00003 -5.83787,-2.77943 -7.03125,-5.84375 -0.40727,-1.04578 -0.46874,-1.59595 -0.46875,-3.6875 -6e-5,-2.12366 0.0683,-2.64916 0.5,-3.75 0.65049,-1.65861 1.95312,-3.40966 3.28125,-4.4375 0.58301,-0.45121 1.27685,-1.01399 1.5625,-1.25 l 0.53125,-0.4375 -5.0625,-7.53125 c -2.78258,-4.13276 -5.0625,-7.5658 -5.0625,-7.625 0,-0.0591 2.39257,-0.0937 5.3125,-0.0937 l 5.3125,0 3.53125,6.09375 c 1.94882,3.35592 3.68088,6.27765 3.84375,6.46875 0.16285,0.19118 0.5827,0.37175 0.9375,0.40625 l 0.65625,0.0625 0.0625,3.40625 0.0625,3.40625 -1.4375,0.15625 c -1.73153,0.17384 -2.94528,0.76165 -3.78125,1.8125 -0.50886,0.63954 -0.64955,1.00666 -0.71875,2.09375 -0.10649,1.67205 0.0451,2.15721 0.8125,3.03125 0.7211,0.82128 2.06854,1.375 3.46875,1.375 1.68943,0 1.625,-0.1576 1.625,3.375 0,1.72717 -0.0566,3.29032 -0.125,3.46875 -0.0874,0.22785 -0.78289,0.31861 -1.78125,0.3125 z m -25.25,0 c -1.81134,0.008 -4.13716,0 -7.125,0 l -13.312504,0 0.0625,-3.84375 0.0625,-3.84375 4.1875,-0.0937 4.21875,-0.0937 0.0625,-13.8125 0.0312,-13.78125 4.718754,0 4.71875,0 0.0625,13.78125 0.0312,13.8125 4.09375,0.0625 c 2.59133,0.0354 4.20255,0.13805 4.375,0.28125 0.20563,0.17058 0.25,1.03637 0.25,3.5625 0,1.83818 -0.0566,3.47782 -0.125,3.65625 -0.0838,0.21853 -0.87847,0.28956 -6.3125,0.3125 z m -47.937504,0 c -0.59971,0.009 -1.36879,0 -2.34375,0 -2.40124,0 -4.41675,-0.0404 -4.46875,-0.125 -0.052,-0.0846 2.51196,-4.97791 5.6875,-10.84375 l 5.78125,-10.65625 0.0625,-6.90625 0.0625,-6.9375 4.6875,0 4.71875,0 0,5.84375 0,5.84375 -5.75,11.53125 c -3.17022,6.34479 -5.91875,11.70878 -6.09375,11.90625 -0.21309,0.24035 -0.54462,0.31793 -2.34375,0.34375 z m 24.5,-0.0312 c -0.8146,0.0278 -2.07569,0.0196 -3.875,0 l -5.0625,-0.0625 -2.78125,-6 -2.78125,-6.03125 2.1875,-4.375 c 1.20587,-2.41488 2.30298,-4.40625 2.40625,-4.40625 0.20221,0 11.09375,20.31008 11.09375,20.6875 0,0.0809 -0.3729,0.1597 -1.1875,0.1875 z"
       style="fill:#02afb6;fill-opacity:1" />
    <flowRoot
       transform="matrix(-1,0,0,-1,853.61439,663.35195)"
       style="font-size:40px;font-style:normal;font-variant:normal;font-weight:normal;font-stretch:normal;line-height:125%;letter-spacing:0px;word-spacing:0px;fill:#000000;fill-opacity:1;stroke:none;font-family:Lohit Malayalam;-inkscape-font-specification:Lohit Malayalam"
       id="flowRoot10611"
       xml:space="preserve"><flowRegion
         id="flowRegion10613"><rect
           y="128.91158"
           x="-134.3503"
           height="64.649734"
           width="772.76672"
           id="rect10615" /></flowRegion><flowPara
         id="flowPara10617"
         style="font-size:24px;font-family:Cantarell;-inkscape-font-specification:Cantarell">Activitiy</flowPara><flowPara
         id="flowPara10619"
         style="font-size:24px;font-family:Cantarell;-inkscape-font-specification:Cantarell" /></flowRoot>  </g>
</svg>
